<svg width="194" height="145" viewBox="0 0 194 145" fill="none" xmlns="http://www.w3.org/2000/svg">
<g clip-path="url(#clip0_2902_20085)">
<path d="M193.938 127.426H0V127.524H193.938V127.426Z" fill="#EBEBEB"/>
<path d="M122.44 130.076H112.565V130.173H122.44V130.076Z" fill="#EBEBEB"/>
<path d="M176.654 132.182H153.253V132.279H176.654V132.182Z" fill="#EBEBEB"/>
<path d="M110.463 130.123H86.2866V130.22H110.463V130.123Z" fill="#EBEBEB"/>
<path d="M70.6087 133.034H65.5508V133.131H70.6087V133.034Z" fill="#EBEBEB"/>
<path d="M98.5552 133.034H75.5232V133.131H98.5552V133.034Z" fill="#EBEBEB"/>
<path d="M35.2617 131.392H20.3479V131.489H35.2617V131.392Z" fill="#EBEBEB"/>
<path d="M91.9303 110.07H17.0356C15.8138 110.07 14.8208 109.074 14.8208 107.848V2.22203C14.8208 0.996216 15.8138 0 17.0356 0H91.9342C93.156 0 94.149 0.996216 94.149 2.22203V107.848C94.1451 109.074 93.1522 110.07 91.9303 110.07ZM17.0356 0.0972867C15.8681 0.0972867 14.9178 1.0507 14.9178 2.22203V107.848C14.9178 109.019 15.8681 109.973 17.0356 109.973H91.9342C93.1017 109.973 94.052 109.019 94.052 107.848V2.22203C94.052 1.0507 93.1017 0.0972867 91.9342 0.0972867H17.0356Z" fill="#EBEBEB"/>
<path d="M175.828 110.07H100.929C99.7071 110.07 98.7141 109.074 98.7141 107.848V2.22203C98.7141 0.996216 99.7071 0 100.929 0H175.828C177.049 0 178.042 0.996216 178.042 2.22203V107.848C178.042 109.074 177.049 110.07 175.828 110.07ZM100.929 0.0972867C99.7614 0.0972867 98.8111 1.0507 98.8111 2.22203V107.848C98.8111 109.019 99.7614 109.973 100.929 109.973H175.828C176.995 109.973 177.945 109.019 177.945 107.848V2.22203C177.945 1.0507 176.995 0.0972867 175.828 0.0972867H100.929Z" fill="#EBEBEB"/>
<path d="M76.008 93.6715H50.2531L48.6899 75.5762H74.4448L76.008 93.6715Z" fill="#E6E6E6"/>
<path d="M77.3422 93.6715H51.5873L50.0242 75.5762H75.7791L77.3422 93.6715Z" fill="#F0F0F0"/>
<path d="M55.1094 89.7879L54.2483 79.4639H72.2573L73.1184 89.7879H55.1094Z" fill="white"/>
<path d="M81.7991 93.6714H78.7776V127.422H81.7991V93.6714Z" fill="#E6E6E6"/>
<path d="M82.7532 93.6714H80.6548V127.422H82.7532V93.6714Z" fill="#F0F0F0"/>
<path d="M53.5025 97.3999H82.7522V93.6758H53.5025V97.3999Z" fill="#F0F0F0"/>
<path d="M54.5352 97.3994H51.5137V127.426H54.5352V97.3994Z" fill="#E6E6E6"/>
<path d="M55.4895 97.3994H53.3911V127.426H55.4895V97.3994Z" fill="#F0F0F0"/>
<path d="M33.0276 97.3994H30.0061V127.426H33.0276V97.3994Z" fill="#E6E6E6"/>
<path d="M33.982 97.3994H31.8835V127.426H33.982V97.3994Z" fill="#F0F0F0"/>
<path d="M62.6768 97.3994H59.6553V127.426H62.6768V97.3994Z" fill="#E6E6E6"/>
<path d="M63.6272 97.3994H61.5288V127.426H63.6272V97.3994Z" fill="#F0F0F0"/>
<path d="M53.5036 93.6714H30.0061V97.3955H53.5036V93.6714Z" fill="#E6E6E6"/>
<path d="M141.124 9.51855H50.2336V60.2866H141.124V9.51855Z" fill="#E0E0E0"/>
<path d="M146.116 9.51855H50.6914V60.2866H146.116V9.51855Z" fill="#F5F5F5"/>
<path d="M144.556 58.7224V11.083L52.2497 11.083L52.2497 58.7224L144.556 58.7224Z" fill="white"/>
<path d="M89.6262 58.7224L107.053 11.083H78.2925L60.8652 58.7224H89.6262Z" fill="#F5F5F5"/>
<path d="M117.309 58.7224L134.736 11.083H113.038L95.6111 58.7224H117.309Z" fill="#F5F5F5"/>
<path d="M169.932 78.9385H162.205V127.426H169.932V78.9385Z" fill="#E6E6E6"/>
<path d="M167.899 127.426H169.932V123.69H165.77L167.899 127.426Z" fill="#FAFAFA"/>
<path d="M98.6986 78.9385H90.9722V127.426H98.6986V78.9385Z" fill="#E6E6E6"/>
<path d="M169.932 78.9385H96.9221V126.418H169.932V78.9385Z" fill="#FAFAFA"/>
<path d="M168.551 94.2591H98.3069V80.8491H168.551V94.2591ZM98.6948 93.87H168.163V81.2383H98.6948V93.87V93.87Z" fill="#E6E6E6"/>
<path d="M156.186 87.3596H112.034C109.982 87.3596 108.008 85.7018 106.619 82.8065L106.483 82.5264H161.728L161.593 82.8065C160.208 85.6979 158.234 87.3596 156.186 87.3596ZM107.108 82.9155C108.419 85.4956 110.203 86.9704 112.034 86.9704H156.182C158.013 86.9704 159.797 85.4995 161.112 82.9155H107.108Z" fill="#E6E6E6"/>
<path d="M98.9546 127.426H96.9221V123.69H101.084L98.9546 127.426Z" fill="#FAFAFA"/>
<path d="M168.551 109.382H98.3069V95.9717H168.551V109.382ZM98.6948 108.993H168.163V96.3608H98.6948V108.993V108.993Z" fill="#E6E6E6"/>
<path d="M156.186 102.482H112.034C109.982 102.482 108.008 100.824 106.619 97.9286L106.483 97.6484H161.728L161.593 97.9286C160.208 100.824 158.234 102.482 156.186 102.482ZM107.108 98.0415C108.419 100.622 110.203 102.093 112.034 102.093H156.182C158.013 102.093 159.797 100.622 161.112 98.0415H107.108V98.0415Z" fill="#E6E6E6"/>
<path d="M168.551 124.508H98.3069V111.098H168.551V124.508ZM98.6948 124.119H168.163V111.487H98.6948V124.119V124.119Z" fill="#E6E6E6"/>
<path d="M156.186 117.608H112.034C109.982 117.608 108.008 115.95 106.619 113.055L106.483 112.775H161.728L161.593 113.055C160.208 115.95 158.234 117.608 156.186 117.608ZM107.108 113.168C108.419 115.748 110.203 117.223 112.034 117.223H156.182C158.013 117.223 159.797 115.752 161.112 113.168H107.108Z" fill="#E6E6E6"/>
<path d="M46.9251 85.3516V86.2933H46.3239L45.8313 93.6715H38.5237L38.0311 86.2933H37.4299V85.3516H46.9251Z" fill="#E6E6E6"/>
<path d="M44.5203 67.0346C43.9191 62.6372 38.0079 61.3842 30.5025 61.2207C23.3617 61.069 21.0732 58.5317 21.0732 58.5317C21.0732 58.5317 21.0965 68.7974 31.3868 72.5138C41.1574 76.0433 45.1215 71.4397 44.5203 67.0346Z" fill="#E6E6E6"/>
<path d="M40.8742 77.0005C40.9984 75.191 43.8764 71.8677 50.8 73.3815C55.8035 74.475 57.6653 71.8716 57.6653 71.8716C57.6653 71.8716 57.2038 79.2187 49.6751 81.429C42.5266 83.5226 40.6532 80.1799 40.8742 77.0005Z" fill="#E6E6E6"/>
<path d="M42.453 88.1224C42.5306 88.1224 42.6043 88.0912 42.6586 88.029C43.159 87.4336 42.7517 86.0093 42.1815 84.0363C41.4523 81.5069 40.5447 78.3548 41.3127 76.0705C41.7471 74.7785 42.2824 73.6422 42.8021 72.5409C43.8882 70.2372 44.8268 68.2447 44.0433 66.1667C43.9929 66.0266 43.8377 65.9605 43.6981 66.011C43.5585 66.0616 43.4925 66.2173 43.5429 66.3574C44.245 68.2253 43.3956 70.027 42.3173 72.3152C41.8169 73.3776 41.2467 74.5839 40.8046 75.9032C39.9823 78.3509 40.917 81.5886 41.6656 84.192C42.1078 85.7252 42.5655 87.3129 42.2474 87.6904C42.1505 87.8033 42.166 87.9706 42.2785 88.0679C42.3328 88.1029 42.391 88.1224 42.453 88.1224Z" fill="#E6E6E6"/>
<path d="M96.9688 145C138.503 145 172.174 143.028 172.174 140.595C172.174 138.162 138.503 136.19 96.9688 136.19C55.4341 136.19 21.7637 138.162 21.7637 140.595C21.7637 143.028 55.4341 145 96.9688 145Z" fill="#F5F5F5"/>
<path d="M96.9534 119.118H41.8751L38.8613 30.2485H93.9396L96.9534 119.118Z" fill="#039D55"/>
<path d="M99.7033 116.359H44.6251L41.6074 27.4893H96.6857L99.7033 116.359Z" fill="#039D55"/>
<path opacity="0.3" d="M99.7033 116.359H44.6251L41.6074 27.4893H96.6857L99.7033 116.359Z" fill="white"/>
<path d="M81.2522 64.0643C87.1501 58.0458 86.8998 48.2039 80.6933 42.0817C74.4867 35.9596 64.6741 35.8756 58.7762 41.8941C52.8783 47.9125 53.1286 57.7545 59.3352 63.8766C65.5417 69.9988 75.3543 70.0828 81.2522 64.0643Z" fill="#039D55"/>
<path d="M82.7999 52.9781C82.8736 55.1924 82.3849 57.2743 81.4617 59.0877C79.4409 63.0843 75.31 65.8044 70.4499 65.8044C65.5899 65.8044 61.2728 63.0843 58.9805 59.0877C57.9332 57.2743 57.3049 55.1924 57.2273 52.9781C56.9868 45.8918 62.514 40.1479 69.5772 40.1479C76.6404 40.1479 82.5594 45.8918 82.7999 52.9781Z" fill="white"/>
<path opacity="0.6" d="M81.4617 59.0876C79.4409 63.0841 75.31 65.8043 70.4499 65.8043C65.5899 65.8043 61.2728 63.0841 58.9805 59.0876C62.1261 56.9317 65.9467 55.6709 70.1047 55.6709C74.2627 55.6709 78.1686 56.9278 81.4617 59.0876Z" fill="#039D55"/>
<path opacity="0.6" d="M73.9993 52.6636C76.168 50.4506 76.076 46.8316 73.7938 44.5804C71.5116 42.3293 67.9034 42.2984 65.7347 44.5114C63.566 46.7245 63.658 50.3435 65.9402 52.5946C68.2224 54.8458 71.8306 54.8767 73.9993 52.6636Z" fill="#039D55"/>
<path d="M88.6374 84.1765H53.5037L53.2671 77.1719H88.4008L88.6374 84.1765Z" fill="white"/>
<path d="M89.0639 96.6951H53.9263L53.6897 89.6904H88.8273L89.0639 96.6951Z" fill="white"/>
<path d="M75.5038 90.6556L67.0365 91.8114C66.6874 91.8581 66.4586 92.1772 66.5245 92.5158L67.6377 98.209C67.7036 98.5475 68.0411 98.7888 68.3902 98.7382L76.8575 97.5824C77.2066 97.5357 77.4354 97.2205 77.3695 96.8781L76.2563 91.1849C76.1904 90.8463 75.849 90.605 75.5038 90.6556ZM73.0718 96.4189L71.5397 96.629L71.3846 94.7923C71.0588 94.6483 70.8222 94.3564 70.7562 94.014C70.6476 93.4575 71.0239 92.9399 71.5902 92.866C72.1565 92.7882 72.7072 93.1773 72.8158 93.7338C72.8818 94.0762 72.7693 94.4148 72.5133 94.6366L73.0718 96.4189Z" fill="#039D55"/>
<path d="M74.6661 90.348C74.3558 90.3908 74.0571 90.1807 73.999 89.8771L73.8904 89.3206C73.5917 87.7874 72.1294 86.6277 70.5469 86.7678C68.8557 86.9157 67.7232 88.4139 68.0373 90.0328L68.1614 90.671C68.2196 90.9745 68.0179 91.2547 67.7076 91.2936C67.3973 91.3364 67.0987 91.1263 67.0405 90.8227L66.9358 90.2779C66.5169 88.1415 67.8589 86.0868 70.0271 85.7055C72.3078 85.3085 74.5575 86.8495 74.9919 89.0755L75.116 89.7137C75.1781 90.025 74.9764 90.3052 74.6661 90.348Z" fill="#039D55"/>
<path d="M83.2652 106.506H60.3922L60.2371 101.945H83.11L83.2652 106.506Z" fill="#039D55"/>
<path d="M72.2302 80.6738C72.2534 81.3821 71.7027 81.9542 70.9967 81.9542C70.2908 81.9542 69.7012 81.3821 69.678 80.6738C69.6547 79.9656 70.2055 79.3936 70.9114 79.3936C71.6173 79.3936 72.2069 79.9656 72.2302 80.6738Z" fill="#263238"/>
<path d="M66.7302 80.6738C66.7534 81.3821 66.2027 81.9542 65.4967 81.9542C64.7908 81.9542 64.2012 81.3821 64.178 80.6738C64.1547 79.9656 64.7055 79.3936 65.4114 79.3936C66.1173 79.3936 66.7069 79.9656 66.7302 80.6738Z" fill="#263238"/>
<path d="M61.2341 80.6738C61.2574 81.3821 60.7066 81.9542 60.0006 81.9542C59.2947 81.9542 58.7051 81.3821 58.6819 80.6738C58.6586 79.9656 59.2094 79.3936 59.9153 79.3936C60.6212 79.3936 61.2108 79.9656 61.2341 80.6738Z" fill="#263238"/>
<path d="M77.7265 80.6738C77.7498 81.3821 77.199 81.9542 76.4931 81.9542C75.7871 81.9542 75.1976 81.3821 75.1743 80.6738C75.151 79.9656 75.7018 79.3936 76.4077 79.3936C77.1137 79.3936 77.7032 79.9656 77.7265 80.6738Z" fill="#263238"/>
<path d="M83.2226 80.6738C83.2459 81.3821 82.6951 81.9542 81.9892 81.9542C81.2832 81.9542 80.6937 81.3821 80.6704 80.6738C80.6471 79.9656 81.1979 79.3936 81.9038 79.3936C82.6098 79.3936 83.1993 79.9656 83.2226 80.6738Z" fill="#263238"/>
<path d="M129.515 46.437C130.031 47.2659 130.462 48.0636 130.904 48.8925C131.346 49.7136 131.745 50.5542 132.137 51.4064C132.909 53.1109 133.6 54.8698 134.115 56.7494C134.185 56.979 134.236 57.2242 134.294 57.4654L134.379 57.8273L134.422 58.0063L134.472 58.3021C134.585 59.0921 134.484 59.738 134.352 60.3062C134.073 61.4386 133.627 62.3453 133.146 63.2092C132.164 64.9176 131.02 66.373 129.698 67.7506L128.065 66.5092C128.871 64.976 129.666 63.3688 130.252 61.8239C130.535 61.0573 130.776 60.2751 130.846 59.633C130.881 59.3178 130.857 59.0454 130.815 58.9442L130.659 58.4694C130.597 58.2749 130.539 58.0803 130.462 57.8818C129.903 56.3097 129.193 54.7336 128.418 53.1809C127.653 51.6321 126.808 50.0561 125.978 48.5812L129.515 46.437Z" fill="#FF8B7B"/>
<path d="M128.48 65.9487L126.699 66.8983L128.747 69.3032C128.747 69.3032 130.027 68.4354 130.081 67.1123L128.48 65.9487Z" fill="#FF8B7B"/>
<path d="M124.302 68.3806L126.494 70.1279L128.743 69.3029L126.695 66.8979L124.302 68.3806Z" fill="#FF8B7B"/>
<path d="M116.809 33.704C116.766 33.922 116.615 34.0737 116.475 34.0426C116.335 34.0153 116.254 33.8169 116.301 33.599C116.343 33.381 116.494 33.2293 116.634 33.2604C116.774 33.2915 116.851 33.49 116.809 33.704Z" fill="#263238"/>
<path d="M116.634 34.0776C116.634 34.0776 115.889 35.2256 115.23 35.7198C115.54 36.1557 116.219 36.1246 116.219 36.1246L116.634 34.0776Z" fill="#FF5652"/>
<path d="M115.936 41.7125L115.951 39.1636L119.318 39.5722C119.318 39.5722 119.26 41.767 117.379 42.4091L115.936 41.7125Z" fill="#FF8B7B"/>
<path d="M116.906 37.3228L119.276 38.0076L119.318 39.5681L115.951 39.1595L116.906 37.3228Z" fill="#FF8B7B"/>
<path opacity="0.2" d="M119.275 38.0076L116.905 37.3228L116.444 38.21C116.502 39.716 117.417 40.9535 118.631 41.51C119.291 40.6422 119.318 39.5681 119.318 39.5681L119.275 38.0076Z" fill="black"/>
<path d="M117.84 32.665C117.871 32.665 117.902 32.6534 117.93 32.63C117.984 32.5833 117.984 32.4977 117.937 32.4471C117.452 31.9218 116.863 32.0152 116.84 32.019C116.77 32.0307 116.723 32.0969 116.735 32.1669C116.747 32.237 116.816 32.2837 116.882 32.272C116.902 32.2681 117.363 32.2019 117.751 32.6222C117.774 32.6495 117.805 32.665 117.84 32.665Z" fill="#263238"/>
<path d="M122.797 37.6421C122.406 39.6462 122.169 42.4208 123.565 43.7556C123.565 43.7556 123.018 45.7869 119.31 45.7869C115.234 45.7869 117.348 44.0046 117.348 44.0046C119.043 43.4754 119.027 41.5413 118.639 39.9848L122.797 37.6421Z" fill="#FF8B7B"/>
<path d="M124.329 45.0941C124.694 44.5766 124.678 42.946 124.291 42.662C123.666 42.1989 120.986 42.0899 117.379 42.9227C117.767 44.5026 116.937 45.3276 116.937 45.3276L124.329 45.0941Z" fill="#039D55"/>
<path d="M136.454 137.478C136.179 137.536 135.908 137.552 135.776 137.439C135.721 137.392 135.663 137.303 135.714 137.139C135.741 137.054 135.795 136.988 135.88 136.949C136.249 136.774 137.094 137.12 137.133 137.132C137.157 137.139 137.172 137.163 137.172 137.19C137.172 137.217 137.16 137.241 137.137 137.248C137.001 137.315 136.726 137.42 136.454 137.478ZM136.008 137.042C135.981 137.05 135.954 137.058 135.931 137.065C135.88 137.089 135.849 137.128 135.834 137.174C135.799 137.291 135.842 137.326 135.857 137.342C136.005 137.466 136.548 137.353 136.932 137.198C136.672 137.108 136.253 136.992 136.008 137.042Z" fill="#039D55"/>
<path d="M137.118 137.26C137.106 137.263 137.098 137.26 137.087 137.26C136.776 137.17 136.117 136.699 136.109 136.388C136.109 136.333 136.129 136.228 136.276 136.178C136.373 136.143 136.466 136.151 136.563 136.201C136.928 136.388 137.156 137.147 137.168 137.178C137.176 137.201 137.168 137.225 137.153 137.244C137.141 137.248 137.129 137.256 137.118 137.26ZM136.346 136.291C136.338 136.294 136.326 136.294 136.319 136.298C136.237 136.326 136.241 136.365 136.241 136.384C136.245 136.567 136.679 136.937 137.001 137.084C136.92 136.867 136.737 136.435 136.505 136.314C136.447 136.287 136.396 136.279 136.346 136.291Z" fill="#039D55"/>
<path d="M116.308 137.937C115.959 137.937 115.622 137.89 115.505 137.731C115.466 137.676 115.435 137.583 115.509 137.447C115.552 137.373 115.622 137.322 115.715 137.295C116.168 137.17 117.123 137.715 117.161 137.738C117.185 137.75 117.196 137.777 117.192 137.805C117.189 137.832 117.169 137.851 117.142 137.859C116.971 137.898 116.638 137.937 116.308 137.937ZM115.878 137.408C115.831 137.408 115.788 137.412 115.753 137.423C115.695 137.439 115.653 137.47 115.625 137.513C115.579 137.594 115.598 137.633 115.614 137.657C115.742 137.832 116.432 137.84 116.936 137.766C116.684 137.637 116.196 137.408 115.878 137.408Z" fill="#039D55"/>
<path d="M117.134 137.863C117.127 137.863 117.115 137.863 117.107 137.859C116.778 137.711 116.126 137.12 116.176 136.809C116.188 136.735 116.238 136.645 116.417 136.626C116.549 136.614 116.669 136.649 116.774 136.739C117.119 137.023 117.193 137.762 117.196 137.793C117.2 137.816 117.189 137.84 117.169 137.852C117.162 137.859 117.146 137.863 117.134 137.863ZM116.467 136.754C116.456 136.754 116.44 136.754 116.428 136.758C116.312 136.77 116.304 136.816 116.304 136.832C116.273 137.019 116.719 137.482 117.053 137.684C117.018 137.47 116.921 137.027 116.692 136.84C116.622 136.781 116.549 136.754 116.467 136.754Z" fill="#039D55"/>
<path d="M120.133 137.797H117.406L117.134 131.458H119.861L120.133 137.797Z" fill="#FF8B7B"/>
<path d="M140.159 136.532L137.49 137.112L134.814 131.205L137.482 130.629L140.159 136.532Z" fill="#FF8B7B"/>
<path d="M137.234 136.843L140.228 136.193C140.337 136.17 140.449 136.224 140.496 136.326L141.536 138.59C141.644 138.824 141.501 139.1 141.249 139.151C140.197 139.361 139.678 139.408 138.359 139.696C137.548 139.871 135.717 140.318 134.6 140.563C133.507 140.801 133.095 139.727 133.534 139.528C135.492 138.629 136.307 137.839 136.838 137.104C136.935 136.968 137.075 136.874 137.234 136.843Z" fill="#263238"/>
<path d="M117.425 137.481H120.404C120.516 137.481 120.613 137.559 120.637 137.668L121.176 140.1C121.23 140.353 121.04 140.591 120.784 140.587C119.71 140.567 118.158 140.505 116.805 140.505C115.226 140.505 113.861 140.591 112.01 140.591C110.889 140.591 110.579 139.454 111.048 139.353C113.182 138.886 114.927 138.836 116.77 137.695C116.967 137.571 117.189 137.481 117.425 137.481Z" fill="#263238"/>
<path d="M128.452 44.3744C131.009 44.962 133.119 51.5114 133.119 51.5114L127.983 55.4379C127.983 55.4379 126.098 53.6556 125.26 50.3789C124.38 46.9467 125.838 43.7712 128.452 44.3744Z" fill="#039D55"/>
<path opacity="0.4" d="M128.452 44.3744C131.009 44.962 133.119 51.5114 133.119 51.5114L127.983 55.4379C127.983 55.4379 126.098 53.6556 125.26 50.3789C124.38 46.9467 125.838 43.7712 128.452 44.3744Z" fill="#6C0000"/>
<path d="M115.005 52.1886C114.365 52.8813 113.729 53.4923 113.073 54.1266C112.747 54.4418 112.41 54.7492 112.069 55.0527L111.553 55.5042L111.425 55.617C111.363 55.6715 111.285 55.7338 111.204 55.7999C111.033 55.9283 110.847 56.0723 110.455 56.2435C110.25 56.3253 109.982 56.4303 109.513 56.4381C109.291 56.442 108.989 56.4031 108.698 56.2941C108.403 56.1852 108.116 55.9945 107.922 55.7999C107.515 55.3913 107.395 55.0333 107.313 54.792C107.24 54.543 107.216 54.3678 107.201 54.2122C107.178 53.9087 107.193 53.7063 107.209 53.5156C107.228 53.3288 107.251 53.1654 107.282 53.0136C107.395 52.4143 107.558 51.9279 107.732 51.4454C107.911 50.9667 108.105 50.5036 108.333 50.0405C108.578 49.5463 108.818 49.1844 109.055 48.7719C110.013 47.1647 111.138 45.6977 112.332 44.3123C113.554 42.9386 114.834 41.6817 116.308 40.5298L117.736 42.0047C116.731 43.3511 115.746 44.7948 114.834 46.2152C113.923 47.6473 113.081 49.1066 112.352 50.5931C112.185 50.9589 111.979 51.3597 111.863 51.6672C111.727 52.0018 111.603 52.3637 111.498 52.7179C111.398 53.0681 111.316 53.4339 111.277 53.7024C111.27 53.7686 111.266 53.823 111.266 53.8581C111.266 53.8892 111.274 53.9048 111.27 53.823C111.266 53.7763 111.262 53.7102 111.219 53.5701C111.173 53.4339 111.099 53.1771 110.773 52.8463C110.614 52.6906 110.378 52.5272 110.133 52.4416C109.897 52.3482 109.648 52.3209 109.482 52.3209C109.121 52.3287 108.962 52.4027 108.857 52.4416C108.667 52.5233 108.663 52.5466 108.663 52.5389L108.811 52.4027L109.276 51.9746L110.203 51.1029C110.816 50.5231 111.433 49.9043 112.018 49.3284L115.005 52.1886Z" fill="#FF8B7B"/>
<path opacity="0.2" d="M126.261 49.1924C127.65 50.57 128.103 53.0838 128.212 55.267L127.987 55.4421C127.987 55.4421 126.102 53.6559 125.26 50.3832C125.21 50.1769 125.163 49.9746 125.128 49.7722L126.261 49.1924Z" fill="black"/>
<path d="M112.294 47.1177C111.735 50.0753 111.386 56.1459 113.007 68.1745H127.599C127.7 65.9252 126.292 54.9629 128.452 44.3743C128.452 44.3743 125.951 43.8723 123.569 43.7555C121.703 43.666 119.004 43.6037 117.367 43.7555C116.684 43.8178 116.009 43.919 115.412 44.024C113.83 44.3042 112.592 45.5378 112.294 47.1177Z" fill="#039D55"/>
<path opacity="0.4" d="M112.294 47.1177C111.735 50.0753 111.386 56.1459 113.007 68.1745H127.599C127.7 65.9252 126.292 54.9629 128.452 44.3743C128.452 44.3743 125.951 43.8723 123.569 43.7555C121.703 43.666 119.004 43.6037 117.367 43.7555C116.684 43.8178 116.009 43.919 115.412 44.024C113.83 44.3042 112.592 45.5378 112.294 47.1177Z" fill="#6C0000"/>
<path opacity="0.2" d="M114.528 51.4883L111.89 50.854C111.809 52.4573 111.801 54.4419 111.921 56.8975C113.132 55.5121 114.683 53.3523 114.528 51.4883Z" fill="black"/>
<path opacity="0.2" d="M117.134 131.462L117.274 134.731H120.005L119.865 131.462H117.134Z" fill="black"/>
<path opacity="0.2" d="M137.482 130.629L134.813 131.209L136.194 134.252L138.863 133.672L137.482 130.629Z" fill="black"/>
<path d="M124.093 34.7117C123.391 37.3345 123.115 38.9067 121.502 39.9963C119.074 41.6385 116.052 39.755 115.955 36.9726C115.87 34.4704 117.03 30.5984 119.838 30.0692C122.603 29.5516 124.795 32.0888 124.093 34.7117Z" fill="#FF8B7B"/>
<path d="M117.972 34.8131C117.844 34.4629 117.239 31.7505 117.805 31.0461C118.372 30.3418 124.83 30.8477 125.784 31.7894C127.367 33.3538 126.269 34.7508 124.535 36.5487C123.232 37.9029 123.181 39.4284 122.522 39.6541C121.37 40.0471 119.582 39.6774 119.221 38.4438C118.864 37.2102 117.972 34.8131 117.972 34.8131Z" fill="#263238"/>
<path d="M125 28.7073C122.72 27.7305 118.437 28.8123 116.13 28.252C116.048 29.4544 116.77 31.3768 119.081 31.8944C119.081 31.8944 122.363 32.5365 124.899 32.4314C127.436 32.3302 126.94 29.5361 125 28.7073Z" fill="#263238"/>
<path d="M125.357 31.8747C125.357 31.8747 126.769 32.0343 127.77 31.4116C128.2 32.4429 125.854 32.7269 125.357 31.8747Z" fill="#263238"/>
<path d="M119.213 34.9219C119.171 35.6341 118.841 36.2995 118.445 36.7393C117.852 37.3969 117.231 36.9883 117.123 36.1867C117.03 35.4667 117.224 34.2565 117.949 33.8946C118.67 33.5327 119.264 34.1086 119.213 34.9219Z" fill="#FF8B7B"/>
<path d="M118.182 68.1748C118.182 68.1748 121.277 89.0914 122.976 96.9289C124.838 105.51 134.818 133.902 134.818 133.902L139.701 132.839C139.701 132.839 132.723 109.701 131.16 97.7033C129.961 88.4883 127.595 68.1709 127.595 68.1709H118.182V68.1748Z" fill="#039D55"/>
<path d="M133.65 132.267C133.631 132.271 134.561 134.038 134.561 134.038L140.058 132.843L139.596 131.185L133.65 132.267Z" fill="#263238"/>
<path opacity="0.3" d="M120.14 75.6267C123.72 76.3311 123.34 89.7255 122.91 96.6134C121.878 91.7452 120.365 82.3745 119.333 75.724C119.57 75.6034 119.838 75.5684 120.14 75.6267Z" fill="black"/>
<path d="M113.003 68.1748C113.003 68.1748 112.627 88.64 112.926 96.9872C113.236 105.669 116.258 134.096 116.258 134.096H120.881C120.881 134.096 121.052 106.175 121.257 97.6488C121.482 88.3521 122.599 68.1748 122.599 68.1748H113.003V68.1748Z" fill="#039D55"/>
<path d="M115.369 132.248C115.35 132.248 115.629 134.174 115.629 134.174H121.25L121.401 132.458L115.369 132.248Z" fill="#263238"/>
<path d="M118.011 48.0166C119.318 51.5539 111.634 55.7217 111.634 55.7217L108.306 51.4294C108.306 51.4294 110.525 46.997 113.252 45.0007C116.615 42.5296 117.014 45.3237 118.011 48.0166Z" fill="#039D55"/>
<path opacity="0.4" d="M118.011 48.0166C119.318 51.5539 111.634 55.7217 111.634 55.7217L108.306 51.4294C108.306 51.4294 110.525 46.997 113.252 45.0007C116.615 42.5296 117.014 45.3237 118.011 48.0166Z" fill="#6C0000"/>
<path d="M148.118 21.162C155.849 21.162 162.116 17.1548 162.116 12.2116C162.116 7.26845 155.849 3.26123 148.118 3.26123C140.387 3.26123 134.119 7.26845 134.119 12.2116C134.119 17.1548 140.387 21.162 148.118 21.162Z" fill="#039D55"/>
<path d="M143.068 16.718C142.292 16.718 141.532 16.4846 140.872 16.0332C139.988 15.43 139.402 14.5116 139.216 13.4531C138.867 11.4257 140.209 9.40987 142.207 8.95068C143.851 8.5771 145.523 9.28145 146.403 10.7096L155.391 8.8495C156.12 8.69773 156.857 9.13358 157.039 9.82237C157.136 10.1882 157.078 10.5656 156.88 10.8847C156.682 11.2038 156.372 11.4218 156.003 11.4996L155.767 11.5502C155.697 11.5657 155.639 11.6085 155.604 11.6708C155.569 11.7331 155.565 11.807 155.588 11.8732L155.747 12.2857C155.856 12.5659 155.755 12.8811 155.507 13.0328C155.317 13.1535 155.185 13.3597 155.158 13.5815C155.127 13.8578 154.944 14.068 154.692 14.1224L154.506 14.1614C154.254 14.2119 154.002 14.0913 153.866 13.85C153.703 13.5699 153.381 13.4259 153.063 13.492C152.745 13.5582 152.505 13.8189 152.466 14.1419C152.435 14.4182 152.249 14.6283 151.997 14.6828L151.814 14.7217C151.566 14.7723 151.31 14.6517 151.174 14.4104C151.062 14.2158 150.86 14.0757 150.635 14.0446C150.348 14.0018 150.131 13.7527 150.119 13.4531L150.1 13.0095C150.096 12.9394 150.065 12.8733 150.007 12.8305C149.952 12.7877 149.883 12.7682 149.809 12.7838L146.946 13.3753C146.702 15.0019 145.48 16.3056 143.863 16.6402C143.599 16.6908 143.331 16.718 143.068 16.718ZM142.292 9.32815C140.492 9.73675 139.286 11.558 139.6 13.3831C139.763 14.3365 140.294 15.1654 141.09 15.7102C141.885 16.255 142.847 16.4495 143.789 16.2511C145.29 15.9398 146.411 14.7062 146.586 13.1807L146.601 13.0406L149.735 12.3907C149.918 12.3518 150.104 12.3985 150.251 12.5114C150.399 12.6242 150.484 12.7954 150.492 12.9822L150.511 13.4259C150.515 13.5387 150.596 13.6321 150.697 13.6477C151.042 13.6983 151.341 13.9006 151.516 14.2042C151.558 14.2781 151.64 14.3481 151.744 14.3287L151.927 14.2898C152.028 14.2703 152.078 14.1691 152.086 14.0835C152.144 13.5932 152.509 13.2002 152.99 13.099C153.471 12.9978 153.959 13.2196 154.204 13.6438C154.246 13.7177 154.328 13.7917 154.432 13.7683L154.619 13.7294C154.719 13.7099 154.77 13.6088 154.778 13.527C154.816 13.1807 155.01 12.8772 155.305 12.6904C155.39 12.6359 155.425 12.5153 155.387 12.4141L155.228 12.0016C155.162 11.8304 155.173 11.6358 155.263 11.4723C155.352 11.3089 155.507 11.1961 155.685 11.1571L155.922 11.1066C156.186 11.0521 156.407 10.8964 156.546 10.6707C156.686 10.4411 156.729 10.1726 156.659 9.91187C156.531 9.42154 155.996 9.11412 155.464 9.22308L146.206 11.1416L146.136 11.0209C145.364 9.66282 143.82 8.98181 142.292 9.32815ZM143.072 15.2782C142.591 15.2782 142.121 15.1381 141.71 14.8657C141.156 14.4999 140.775 13.9395 140.644 13.2858C140.508 12.632 140.636 11.9666 141 11.4101C141.365 10.8536 141.923 10.4761 142.575 10.3399C143.227 10.2037 143.89 10.3321 144.445 10.6979C144.999 11.0637 145.376 11.6241 145.511 12.2779C145.647 12.9316 145.519 13.5932 145.154 14.1497C144.79 14.7062 144.231 15.0875 143.58 15.2198C143.409 15.2626 143.238 15.2782 143.072 15.2782ZM143.083 10.6824C142.94 10.6824 142.796 10.6979 142.653 10.7252C142.106 10.838 141.633 11.161 141.326 11.628C141.02 12.0989 140.911 12.6592 141.024 13.2079C141.136 13.7566 141.458 14.2314 141.923 14.5388C142.393 14.8463 142.951 14.9552 143.498 14.8424C144.049 14.7295 144.518 14.4065 144.825 13.9395C145.131 13.4687 145.24 12.9083 145.127 12.3596C145.015 11.807 144.693 11.3361 144.227 11.0248C143.882 10.7991 143.487 10.6824 143.083 10.6824Z" fill="white"/>
<path opacity="0.6" d="M136.726 26.4117C139.267 26.4117 141.326 25.0946 141.326 23.4698C141.326 21.845 139.267 20.5278 136.726 20.5278C134.185 20.5278 132.126 21.845 132.126 23.4698C132.126 25.0946 134.185 26.4117 136.726 26.4117Z" fill="#039D55"/>
<path opacity="0.3" d="M129.407 27.6144C130.45 27.6144 131.296 27.0743 131.296 26.408C131.296 25.7418 130.45 25.2017 129.407 25.2017C128.364 25.2017 127.518 25.7418 127.518 26.408C127.518 27.0743 128.364 27.6144 129.407 27.6144Z" fill="#039D55"/>
</g>
<defs>
<clipPath id="clip0_2902_20085">
<rect width="193.938" height="145" fill="white"/>
</clipPath>
</defs>
</svg>
